<svg width="18" height="18" viewBox="0 0 18 18" fill="none" xmlns="http://www.w3.org/2000/svg">
<path d="M12.7657 1.84738C13.7498 1.85021 14.6928 2.22793 15.3887 2.89804C16.0846 3.56815 16.4768 4.4762 16.4797 5.42388V12.5761C16.4768 13.5238 16.0846 14.4318 15.3887 15.102C14.6928 15.7721 13.7498 16.1498 12.7657 16.1526H5.33836C4.35423 16.1498 3.41126 15.7721 2.71537 15.102C2.01949 14.4318 1.62724 13.5238 1.6243 12.5761V5.42388C1.62724 4.4762 2.01949 3.56815 2.71537 2.89804C3.41126 2.22793 4.35423 1.85021 5.33836 1.84738H12.7657ZM12.7657 0.417007H5.33836C2.47861 0.417007 0.138916 2.67004 0.138916 5.42388V12.5761C0.138916 15.33 2.47861 17.583 5.33836 17.583H12.7657C15.6254 17.583 17.9651 15.33 17.9651 12.5761V5.42388C17.9651 2.67004 15.6254 0.417007 12.7657 0.417007Z" fill="#1C2752"/>
<path d="M13.8798 5.42418C13.6595 5.42418 13.444 5.36126 13.2608 5.24337C13.0776 5.12548 12.9348 4.95792 12.8505 4.76188C12.7662 4.56584 12.7441 4.35012 12.7871 4.142C12.8301 3.93388 12.9362 3.74271 13.092 3.59267C13.2478 3.44263 13.4463 3.34045 13.6625 3.29905C13.8786 3.25765 14.1026 3.2789 14.3062 3.3601C14.5098 3.4413 14.6838 3.57882 14.8062 3.75525C14.9286 3.93168 14.9939 4.13911 14.9939 4.35131C14.9943 4.49228 14.9657 4.63193 14.9098 4.76224C14.8539 4.89254 14.7718 5.01093 14.6683 5.11062C14.5648 5.21031 14.4419 5.28932 14.3065 5.34313C14.1712 5.39694 14.0262 5.42448 13.8798 5.42418ZM9.05201 6.13918C9.63965 6.13918 10.2141 6.30698 10.7027 6.62136C11.1913 6.93575 11.5721 7.38259 11.797 7.9054C12.0219 8.4282 12.0807 9.00347 11.9661 9.55848C11.8514 10.1135 11.5685 10.6233 11.1529 11.0234C10.7374 11.4236 10.208 11.6961 9.63166 11.8064C9.05531 11.9168 8.45791 11.8602 7.915 11.6436C7.37209 11.4271 6.90805 11.0604 6.58158 10.5899C6.2551 10.1193 6.08085 9.56618 6.08085 9.0003C6.08169 8.24173 6.39499 7.51446 6.95201 6.97808C7.50903 6.44169 8.26427 6.13999 9.05201 6.13918ZM9.05201 4.7088C8.17059 4.7088 7.30896 4.9605 6.57609 5.43205C5.84321 5.90361 5.272 6.57385 4.9347 7.35802C4.59739 8.14218 4.50914 9.00506 4.68109 9.83753C4.85305 10.67 5.27749 11.4347 5.90075 12.0348C6.52401 12.635 7.3181 13.0437 8.18258 13.2093C9.04707 13.3749 9.94313 13.2899 10.7575 12.9651C11.5718 12.6403 12.2678 12.0903 12.7575 11.3845C13.2472 10.6788 13.5086 9.84908 13.5086 9.0003C13.5086 7.86212 13.039 6.77057 12.2033 5.96575C11.3675 5.16094 10.234 4.7088 9.05201 4.7088Z" fill="#1C2752"/>
</svg>
