<svg width="19" height="20" viewBox="0 0 19 20" fill="none" xmlns="http://www.w3.org/2000/svg">
<path d="M9.94747 0.945415C4.94613 0.945415 0.890869 4.99886 0.890869 9.99798C0.890869 13.7039 3.12268 16.8884 6.3127 18.2908C6.28844 17.6603 6.30866 16.9006 6.47039 16.2135C6.64424 15.478 7.63481 11.2791 7.63481 11.2791C7.63481 11.2791 7.3437 10.7012 7.3437 9.84845C7.3437 8.50673 8.11998 7.50448 9.09033 7.50448C9.91513 7.50448 10.3114 8.12281 10.3114 8.86237C10.3114 9.69084 9.78171 10.9275 9.51082 12.0752C9.2844 13.0371 9.99195 13.817 10.9421 13.817C12.6564 13.817 13.8127 11.6145 13.8127 9.00381C13.8127 7.01952 12.4744 5.53636 10.0445 5.53636C7.29923 5.53636 5.58494 7.58531 5.58494 9.8727C5.58494 10.6608 5.81944 11.2185 6.18332 11.6468C6.34909 11.8449 6.37335 11.9257 6.3127 12.152C6.26823 12.3177 6.17119 12.7178 6.12672 12.8794C6.06607 13.1098 5.88009 13.1906 5.67389 13.1058C4.40839 12.5885 3.81809 11.2063 3.81809 9.64638C3.81809 7.0761 5.98925 3.99257 10.2911 3.99257C13.748 3.99257 16.0243 6.49415 16.0243 9.17759C16.0243 12.7299 14.0472 15.381 11.1362 15.381C10.1577 15.381 9.23993 14.8516 8.92456 14.2535C8.92456 14.2535 8.39896 16.3388 8.28575 16.7429C8.09572 17.4421 7.71971 18.1372 7.37605 18.6828C8.20969 18.9286 9.07427 19.0538 9.94343 19.0546C14.9448 19.0546 19 15.0011 19 10.002C19 5.0029 14.9488 0.945415 9.94747 0.945415Z" fill="#1C2752"/>
</svg>
