<svg width="20" height="16" viewBox="0 0 20 16" fill="none" xmlns="http://www.w3.org/2000/svg">
<path d="M19.8909 2.17065C19.1744 2.48196 18.4164 2.68705 17.6407 2.77945C18.4559 2.30211 19.0689 1.54378 19.3649 0.646672C18.5942 1.09734 17.7524 1.41355 16.8756 1.58175C16.5063 1.1948 16.0623 0.886969 15.5704 0.67697C15.0785 0.466971 14.5491 0.359191 14.0142 0.360179C11.8488 0.360179 10.0964 2.08709 10.0964 4.21589C10.0949 4.512 10.1288 4.80723 10.1975 5.09527C8.64474 5.02247 7.12427 4.62637 5.73337 3.93229C4.34247 3.23821 3.11177 2.26144 2.11999 1.06447C1.77205 1.65104 1.58804 2.32028 1.58719 3.00228C1.58719 4.33924 2.28472 5.52103 3.33798 6.21338C2.71396 6.19857 2.10272 6.03341 1.55616 5.73192V5.77966C1.55616 7.64983 2.90904 9.20564 4.69962 9.55978C4.3629 9.64954 4.01592 9.69502 3.66745 9.69506C3.42018 9.6955 3.17348 9.6715 2.93092 9.62344C3.42871 11.1554 4.87748 12.2695 6.59365 12.3014C5.19914 13.3761 3.48705 13.9569 1.72646 13.9527C1.41395 13.9522 1.10174 13.9336 0.791382 13.897C2.58243 15.0406 4.66438 15.6456 6.78942 15.6398C14.0059 15.6398 17.9483 9.76271 17.9483 4.66553C17.9483 4.49841 17.9439 4.33129 17.936 4.16814C18.7012 3.62383 19.3632 2.94741 19.8909 2.17065Z" fill="#1C2752"/>
</svg>
